<svg width="391" height="42" viewBox="0 0 391 42" fill="none" xmlns="http://www.w3.org/2000/svg">
<path d="M22.0246 33.1115C22.0605 29.4401 21.1297 26.4545 19.9457 26.4429C18.7616 26.4314 17.7727 29.3983 17.7368 33.0696C17.7009 36.7411 18.6317 39.7267 19.8157 39.7383C20.9998 39.7499 21.9888 36.783 22.0246 33.1115Z" fill="#FF6129"/>
<path d="M15.1576 32.2777C17.1728 29.2086 18.0041 26.1937 17.0144 25.5438C16.0245 24.8939 13.5884 26.855 11.5732 29.9241C9.55797 32.9933 8.72669 36.0081 9.71645 36.6581C10.7063 37.308 13.1423 35.3469 15.1576 32.2777Z" fill="#FF6129"/>
<path d="M9.82334 27.8744C13.1781 26.3822 15.5074 24.2955 15.0261 23.2136C14.5449 22.1316 11.4353 22.4643 8.08062 23.9565C4.72593 25.4487 2.39655 27.5354 2.87779 28.6173C3.35902 29.6992 6.46865 29.3666 9.82334 27.8744Z" fill="#FF6129"/>
<path d="M14.6236 20.1795C14.8037 19.0092 12.008 17.6076 8.37917 17.0491C4.75028 16.4905 1.66249 16.9865 1.48236 18.1568C1.30223 19.3272 4.09797 20.7286 7.72684 21.2872C11.3557 21.8457 14.4435 21.3497 14.6236 20.1795Z" fill="#FF6129"/>
<path d="M15.9265 17.3917C16.7106 16.5045 15.1161 13.8142 12.3649 11.3827C9.61381 8.9513 6.74791 7.6995 5.96376 8.58674C5.17962 9.47401 6.77418 12.1643 9.52533 14.5958C12.2765 17.0272 15.1424 18.279 15.9265 17.3917Z" fill="#FF6129"/>
<path d="M18.5211 15.7623C19.6605 15.4399 19.7737 12.3146 18.774 8.7817C17.7743 5.24883 16.0402 2.64624 14.9009 2.96865C13.7615 3.29106 13.6483 6.41637 14.648 9.94927C15.6477 13.4821 17.3818 16.0847 18.5211 15.7623Z" fill="#FF6129"/>
<path d="M25.5668 10.0592C26.636 6.54673 26.5845 3.41979 25.4517 3.07498C24.3189 2.73017 22.5338 5.29805 21.4646 8.81053C20.3955 12.323 20.447 15.4499 21.5798 15.7947C22.7126 16.1395 24.4977 13.5717 25.5668 10.0592Z" fill="#FF6129"/>
<path d="M30.6011 14.8053C33.3993 12.4281 35.0461 9.76948 34.2794 8.8671C33.5128 7.9647 30.6229 9.16028 27.8249 11.5374C25.0267 13.9146 23.3799 16.5732 24.1465 17.4756C24.9132 18.378 27.803 17.1825 30.6011 14.8053Z" fill="#FF6129"/>
<path d="M32.2657 21.5215C35.9049 21.0347 38.7277 19.6886 38.5707 18.5149C38.4137 17.3413 35.3363 16.7846 31.6971 17.2714C28.058 17.7583 25.2351 19.1043 25.3921 20.278C25.5492 21.4516 28.6265 22.0084 32.2657 21.5215Z" fill="#FF6129"/>
<path d="M36.9603 28.9528C37.4628 27.8806 35.175 25.7484 31.8504 24.1903C28.5258 22.6322 25.4234 22.2384 24.9209 23.3105C24.4184 24.3828 26.7062 26.515 30.0308 28.0731C33.3554 29.6311 36.4579 30.025 36.9603 28.9528Z" fill="#FF6129"/>
<path d="M29.9671 36.864C30.9695 36.2338 30.1978 33.203 28.2435 30.0948C26.2892 26.9866 23.8922 24.9778 22.8898 25.6081C21.8874 26.2383 22.6591 29.269 24.6134 32.3773C26.5678 35.4855 28.9647 37.4943 29.9671 36.864Z" fill="#FF6129"/>
<path d="M50.896 21.088C50.896 19.1467 51.2973 17.42 52.1 15.908C52.9213 14.3773 54.0787 13.192 55.572 12.352C57.0653 11.4933 58.7827 11.064 60.724 11.064C63.188 11.064 65.26 11.7267 66.94 13.052C68.62 14.3587 69.7027 16.1413 70.188 18.4H64.28C63.9253 17.6533 63.4307 17.084 62.796 16.692C62.18 16.3 61.4613 16.104 60.64 16.104C59.3707 16.104 58.3533 16.5613 57.588 17.476C56.8413 18.372 56.468 19.576 56.468 21.088C56.468 22.6187 56.8413 23.8413 57.588 24.756C58.3533 25.652 59.3707 26.1 60.64 26.1C61.4613 26.1 62.18 25.904 62.796 25.512C63.4307 25.12 63.9253 24.5507 64.28 23.804H70.188C69.7027 26.0627 68.62 27.8547 66.94 29.18C65.26 30.4867 63.188 31.14 60.724 31.14C58.7827 31.14 57.0653 30.72 55.572 29.88C54.0787 29.0213 52.9213 27.836 52.1 26.324C51.2973 24.7933 50.896 23.048 50.896 21.088ZM80.0948 31.196C78.5268 31.196 77.1174 30.8693 75.8668 30.216C74.6348 29.5627 73.6641 28.6293 72.9548 27.416C72.2454 26.2027 71.8908 24.7747 71.8908 23.132C71.8908 21.508 72.2454 20.0893 72.9548 18.876C73.6828 17.6627 74.6628 16.7293 75.8948 16.076C77.1454 15.4227 78.5548 15.096 80.1228 15.096C81.6908 15.096 83.0908 15.4227 84.3228 16.076C85.5734 16.7293 86.5534 17.6627 87.2628 18.876C87.9908 20.0893 88.3548 21.508 88.3548 23.132C88.3548 24.756 87.9908 26.184 87.2628 27.416C86.5534 28.6293 85.5734 29.5627 84.3228 30.216C83.0721 30.8693 81.6628 31.196 80.0948 31.196ZM80.0948 26.436C80.8601 26.436 81.4948 26.156 81.9988 25.596C82.5214 25.0173 82.7828 24.196 82.7828 23.132C82.7828 22.068 82.5214 21.256 81.9988 20.696C81.4948 20.136 80.8694 19.856 80.1228 19.856C79.3761 19.856 78.7508 20.136 78.2468 20.696C77.7428 21.256 77.4908 22.068 77.4908 23.132C77.4908 24.2147 77.7334 25.036 78.2188 25.596C78.7041 26.156 79.3294 26.436 80.0948 26.436ZM96.3835 15.096C97.4475 15.096 98.3715 15.3107 99.1555 15.74C99.9582 16.1693 100.574 16.748 101.004 17.476V15.292H106.492V30.832C106.492 32.3067 106.212 33.632 105.652 34.808C105.092 36.0027 104.214 36.9547 103.02 37.664C101.844 38.3733 100.35 38.728 98.5395 38.728C96.1129 38.728 94.1715 38.1587 92.7155 37.02C91.2595 35.8813 90.4289 34.332 90.2235 32.372H95.6275C95.7395 32.876 96.0195 33.268 96.4675 33.548C96.9155 33.828 97.4942 33.968 98.2035 33.968C100.07 33.968 101.004 32.9227 101.004 30.832V28.816C100.574 29.544 99.9582 30.1227 99.1555 30.552C98.3715 30.9813 97.4475 31.196 96.3835 31.196C95.1329 31.196 93.9942 30.8693 92.9675 30.216C91.9595 29.5627 91.1569 28.6293 90.5595 27.416C89.9809 26.184 89.6915 24.756 89.6915 23.132C89.6915 21.508 89.9809 20.0893 90.5595 18.876C91.1569 17.6627 91.9595 16.7293 92.9675 16.076C93.9942 15.4227 95.1329 15.096 96.3835 15.096ZM101.004 23.132C101.004 22.124 100.724 21.3307 100.164 20.752C99.6222 20.1733 98.9502 19.884 98.1475 19.884C97.3262 19.884 96.6449 20.1733 96.1035 20.752C95.5622 21.312 95.2915 22.1053 95.2915 23.132C95.2915 24.14 95.5622 24.9427 96.1035 25.54C96.6449 26.1187 97.3262 26.408 98.1475 26.408C98.9502 26.408 99.6222 26.1187 100.164 25.54C100.724 24.9613 101.004 24.1587 101.004 23.132ZM119.895 15.152C121.705 15.152 123.143 15.7587 124.207 16.972C125.271 18.1667 125.803 19.7907 125.803 21.844V31H120.315V22.572C120.315 21.676 120.081 20.976 119.615 20.472C119.148 19.9493 118.523 19.688 117.739 19.688C116.917 19.688 116.273 19.9493 115.807 20.472C115.34 20.976 115.107 21.676 115.107 22.572V31H109.619V15.292H115.107V17.532C115.592 16.8227 116.245 16.2533 117.067 15.824C117.888 15.376 118.831 15.152 119.895 15.152ZM131.586 13.836C130.615 13.836 129.831 13.5747 129.234 13.052C128.655 12.5107 128.366 11.8387 128.366 11.036C128.366 10.2147 128.655 9.53333 129.234 8.992C129.831 8.45067 130.615 8.18 131.586 8.18C132.538 8.18 133.303 8.45067 133.882 8.992C134.479 9.53333 134.778 10.2147 134.778 11.036C134.778 11.8387 134.479 12.5107 133.882 13.052C133.303 13.5747 132.538 13.836 131.586 13.836ZM134.302 15.292V31H128.814V15.292H134.302ZM146.695 26.324V31H144.315C140.302 31 138.295 29.012 138.295 25.036V19.856H136.363V15.292H138.295V11.484H143.811V15.292H146.667V19.856H143.811V25.12C143.811 25.5493 143.905 25.8573 144.091 26.044C144.297 26.2307 144.633 26.324 145.099 26.324H146.695ZM151.985 13.836C151.014 13.836 150.23 13.5747 149.633 13.052C149.054 12.5107 148.765 11.8387 148.765 11.036C148.765 10.2147 149.054 9.53333 149.633 8.992C150.23 8.45067 151.014 8.18 151.985 8.18C152.937 8.18 153.702 8.45067 154.281 8.992C154.878 9.53333 155.177 10.2147 155.177 11.036C155.177 11.8387 154.878 12.5107 154.281 13.052C153.702 13.5747 152.937 13.836 151.985 13.836ZM154.701 15.292V31H149.213V15.292H154.701ZM165.134 31.196C163.566 31.196 162.156 30.8693 160.906 30.216C159.674 29.5627 158.703 28.6293 157.994 27.416C157.284 26.2027 156.93 24.7747 156.93 23.132C156.93 21.508 157.284 20.0893 157.994 18.876C158.722 17.6627 159.702 16.7293 160.934 16.076C162.184 15.4227 163.594 15.096 165.162 15.096C166.73 15.096 168.13 15.4227 169.362 16.076C170.612 16.7293 171.592 17.6627 172.302 18.876C173.03 20.0893 173.394 21.508 173.394 23.132C173.394 24.756 173.03 26.184 172.302 27.416C171.592 28.6293 170.612 29.5627 169.362 30.216C168.111 30.8693 166.702 31.196 165.134 31.196ZM165.134 26.436C165.899 26.436 166.534 26.156 167.038 25.596C167.56 25.0173 167.822 24.196 167.822 23.132C167.822 22.068 167.56 21.256 167.038 20.696C166.534 20.136 165.908 19.856 165.162 19.856C164.415 19.856 163.79 20.136 163.286 20.696C162.782 21.256 162.53 22.068 162.53 23.132C162.53 24.2147 162.772 25.036 163.258 25.596C163.743 26.156 164.368 26.436 165.134 26.436Z" fill="white"/>
</svg>
